<?xml version="1.0" standalone="no"?><!DOCTYPE svg PUBLIC "-//W3C//DTD SVG 1.1//EN" "http://www.w3.org/Graphics/SVG/1.1/DTD/svg11.dtd"><svg t="1522325799763" class="icon" style="" viewBox="0 0 1024 1024" version="1.1" xmlns="http://www.w3.org/2000/svg" p-id="9159" xmlns:xlink="http://www.w3.org/1999/xlink" width="25" height="25"><defs><style type="text/css"></style></defs><path d="M101.184 326.848c7.04-4.544 15.36-6.976 23.744-6.368 10.24-0.896 19.648 4.032 28.384 8.704 13.504 7.296 23.328 19.392 33.376 30.624 9.6 11.296 19.488 22.304 29.6 33.12 11.168 12.704 24 23.744 36.8 34.752 16.96 13.6 35.84 24.992 56.16 32.8 10.816 3.072 21.44 7.328 32.64 8.704 7.744 0.736 15.36 2.464 23.136 2.72h295.744c5.696-0.224 11.296-1.472 17.024-1.696 24.288-1.76 47.872-9.024 69.824-19.36a267.904 267.904 0 0 0 32.96-19.776c9.376-6.624 17.856-14.368 26.432-21.952 8.32-7.456 16.256-15.36 23.744-23.68 5.024-5.696 10.496-10.976 15.072-17.088 8.448-11.2 16.384-23.04 26.912-32.384 7.008-5.536 14.4-11.36 23.392-12.96 8.48-1.408 17.76-1.28 25.344 3.328 10.912 6.624 18.4 17.696 23.2 29.312 5.6 10.912 7.616 23.104 10.144 34.976 1.824 8.192 2.304 16.576 3.68 24.832 0.48 5.856 0.64 11.712 1.504 17.504v286.912H64v-230.56c0.448-17.824 0.096-35.648 0.192-53.44 0.128-6.752-0.256-13.536 0.512-20.224 1.6-9.184 1.6-18.56 3.936-27.616 1.792-11.264 5.344-22.144 9.696-32.64 4.928-11.328 12.736-21.44 22.848-28.544zM211.744 483.2c-8.384 2.88-16.896 5.728-24.416 10.496-17.92 10.528-32.16 27.136-40 46.4a73.152 73.152 0 0 0-6.88 29.216c-1.12 6.496-0.992 13.184 0.064 19.68 0 10.4 2.816 20.64 7.328 29.984 3.296 8.32 8.384 15.808 13.92 22.816 6.336 7.264 13.152 14.24 21.44 19.264 12.608 8.192 26.816 13.952 41.696 16.224 1.6-0.096 3.776 0.64 4.704-1.184-2.912-4.352-6.112-8.544-8.384-13.28-4.576-8.064-6.304-17.184-8.768-25.984-1.184-5.088-1.92-10.24-3.136-15.36-1.152-4.128-0.256-8.48-0.864-12.672-1.056-4.736-0.512-9.6-0.768-14.4-0.16-13.12-0.064-26.272 0.096-39.392-0.128-4.256 1.248-8.384 0.992-12.64 2.24-15.808 5.344-31.808 12.48-46.272 2.368-4.96 5.696-9.376 8.576-14.048-5.824-2.368-12.32-0.544-18.08 1.152z m36.832-1.952a15.968 15.968 0 0 0 2.112 4.416c3.392 4.832 6.816 9.792 8.864 15.392 3.008 8.832 6.272 17.696 7.52 26.976 0.64 3.712 1.728 7.36 2.368 11.072 0.224 3.2 0 6.496 0.864 9.664 0.608 8-0.416 16.16 0.96 24.128 0 5.376 0.48 10.816-0.608 16.128-0.224 6.272 0.032 12.576-0.32 18.848-0.768 3.2-0.64 6.56-0.96 9.824-0.704 4.064-1.728 8.064-2.336 12.16-1.248 10.432-4.768 20.416-8.416 30.208-2.656 5.792-6.368 11.008-10.016 16.192 4.416 2.336 9.44 0.416 13.92-0.768 13.12-3.456 25.504-9.28 36.576-17.152 6.4-4.544 11.584-10.496 17.088-16a94.4 94.4 0 0 0 19.072-36.512c0.96-3.84 2.432-7.552 2.528-11.52-0.096-5.056 1.184-10.048 0.8-15.136 0.384-6.08-0.704-12.096-1.024-18.176a100.672 100.672 0 0 0-53.76-70.848c-11.072-4.928-22.816-10.176-35.232-8.896z m500.32 5.024c-15.36 5.952-29.824 15.04-40.288 27.872-9.44 9.952-15.36 22.624-20.224 35.328-3.296 12.224-4.512 24.96-3.712 37.632 0.992 3.872 0.448 7.968 1.504 11.84 1.184 8.256 4.48 15.936 7.904 23.456 8.64 17.92 22.944 32.992 40.384 42.56 9.6 5.92 20.64 8.736 31.424 11.68 2.656 0.832 5.472 0.64 8.224 0.672 0.256-1.28 0.064-2.656-0.96-3.584-7.68-8.8-11.456-20.16-14.24-31.328-1.664-7.616-4.416-15.04-4.8-22.88-1.152-4.192-0.16-8.64-1.28-12.832-0.48-3.936-0.128-7.936-1.088-11.84-0.288-10.112-0.288-20.256 0.032-30.4 1.28-5.44 0.224-11.168 1.6-16.64-0.256-10.656 2.752-21.024 5.28-31.264 2.24-10.656 6.336-21.024 12.8-29.824a9.248 9.248 0 0 0 2.08-5.504c-8.512-0.576-16.832 1.92-24.64 5.056z m44.48-4.16c3.2 4.992 6.976 9.6 9.344 15.04 5.728 13.12 8.256 27.296 11.36 41.152 2.016 16.224 1.184 32.64 1.344 48.96-0.16 8.64 0.416 17.376-0.896 25.952 0.16 7.776-2.304 15.232-3.84 22.784-1.92 8.96-4.32 17.952-8.128 26.336-2.4 5.376-6.88 9.504-9.312 14.848 3.04 0.032 6.176 0.48 9.152-0.416 9.376-2.624 19.008-4.832 27.584-9.632a98.08 98.08 0 0 0 46.912-51.84c3.072-7.808 5.696-16 5.76-24.448 1.184-6.208 0.544-12.576 0.736-18.88-0.672-6.784-1.152-13.632-3.168-20.224a102.88 102.88 0 0 0-16.64-32.96c-3.84-5.12-8.32-9.6-12.8-14.08-10.752-10.368-24.64-16.8-38.72-21.408-5.984-1.76-12.608-3.52-18.688-1.184z m-310.048 73.28c-3.232 1.632-5.312 6.048-3.04 9.28 8.032 12.16 16.864 23.712 25.312 35.52 3.264 0.16 6.56 0.192 9.824 0.096 2.144 0.256 3.328-1.92 4.48-3.328 7.04-10.528 14.976-20.384 22.4-30.624 2.048-2.368 2.272-6.208 0.16-8.576-2.656-3.264-6.88-4.64-10.784-5.76-12.544-0.256-25.088 0-37.664-0.128-3.84-0.16-7.36 1.76-10.688 3.52z m16.096 69.12c-1.504 4.576-1.152 9.344-1.408 14.08a171.52 171.52 0 0 1-3.68 17.632c-5.696 18.88-25.472 32.192-45.056 30.912a86.624 86.624 0 0 1-33.76-8.768c-3.168-1.504-6.016-4.032-9.664-4.128-1.344 3.392-1.024 7.104-0.864 10.688 1.312 5.216 6.464 7.808 10.816 10.176 10.56 4.64 22.112 6.368 33.44 8.16 3.584 0.128 7.04-0.992 10.56-1.568 10.816-1.696 21.824-4.672 30.72-11.36 6.656-4.48 10.688-11.552 15.392-17.824 1.76-2.88 5.568-1.408 8.32-1.792 3.968 3.744 6.688 8.512 9.984 12.8 7.136 8.256 17.28 13.408 27.68 16.256 9.12 2.016 18.528 3.36 27.904 2.304 3.904-0.8 7.872-1.312 11.808-1.888 5.12-1.504 10.368-2.784 15.168-5.152 4.512-2.656 9.6-5.632 11.392-10.912 1.792-3.68-0.128-7.584-1.056-11.2-11.264 5.76-22.784 11.616-35.488 13.376a218.656 218.656 0 0 1-19.072-0.032 44.384 44.384 0 0 1-27.712-16.448 62.912 62.912 0 0 1-10.304-30.56c-0.64-4.96-0.704-10.112-2.976-14.72a59.52 59.52 0 0 0-22.144 0z" fill="#ffffff" p-id="9160"></path></svg>