<?xml version="1.0" standalone="no"?><!DOCTYPE svg PUBLIC "-//W3C//DTD SVG 1.1//EN" "http://www.w3.org/Graphics/SVG/1.1/DTD/svg11.dtd"><svg t="1522324276617" class="icon" style="" viewBox="0 0 1118 1024" version="1.1" xmlns="http://www.w3.org/2000/svg" p-id="4606" xmlns:xlink="http://www.w3.org/1999/xlink" width="21.8359375" height="20"><defs><style type="text/css"></style></defs><path d="M581.818182 187.671273 581.818182 528.290909 824.366545 671.232 847.965091 631.156364 628.363636 500.549818 628.363636 187.671273Z" p-id="4607" fill="#ffffff"></path><path d="M202.053818 744.96 149.038545 744.96C233.797818 910.615273 406.202182 1024 605.090909 1024c282.763636 0 512-229.236364 512-512 0-282.763636-229.236364-512-512-512C354.117818 0 145.314909 180.596364 101.515636 418.909091L0 418.909091l116.363636 139.636364L232.727273 418.909091 148.945455 418.909091C192.093091 206.475636 379.904 46.545455 605.090909 46.545455c257.070545 0 465.454545 208.384 465.454545 465.454545s-208.384 465.454545-465.454545 465.454545C432.919273 977.454545 282.530909 883.944727 202.053818 744.96z" p-id="4608" fill="#ffffff"></path></svg>